<svg width="64" height="64" viewBox="0 0 64 64" fill="none" xmlns="http://www.w3.org/2000/svg">
<g clip-path="url(#clip0_4_482)">
<path d="M31.9999 5.33334C35.5018 5.33334 38.9695 6.0231 42.2048 7.36322C45.4402 8.70335 48.3799 10.6676 50.8561 13.1438C53.3323 15.6201 55.2966 18.5598 56.6367 21.7951C57.9768 25.0305 58.6666 28.4981 58.6666 32C58.6666 39.0725 55.8571 45.8552 50.8561 50.8562C45.8551 55.8572 39.0724 58.6667 31.9999 58.6667C19.7333 58.6667 9.46659 50.4533 6.29325 39.28L16.5066 43.4933C16.8579 45.2008 17.787 46.7351 19.1373 47.8377C20.4876 48.9403 22.1766 49.5438 23.9199 49.5467C28.0799 49.5467 31.4666 46.16 31.4666 42V41.6533L40.5333 35.1733H40.7466C46.2933 35.1733 50.7999 30.6667 50.7999 25.12C50.7999 19.5733 46.2933 15.0667 40.7466 15.0667C35.1999 15.0667 30.6666 19.5733 30.6666 25.12V25.2533L24.3466 34.48L23.9199 34.4533C22.3466 34.4533 20.8799 34.9333 19.6799 35.76L5.33325 29.8667C6.47992 16.1333 17.9466 5.33334 31.9999 5.33334ZM22.0799 45.7867C24.2133 46.6667 26.6666 45.68 27.5466 43.5467C28.4266 41.4133 27.4133 38.9867 25.3333 38.1067L21.9199 36.6933C23.2266 36.2133 24.6933 36.1867 26.0799 36.7733C27.4933 37.3333 28.5866 38.4267 29.1466 39.84C29.7333 41.2267 29.7333 42.7733 29.1466 44.16C27.9999 47.04 24.6133 48.4267 21.7333 47.2267C20.3999 46.6667 19.3866 45.6533 18.8266 44.4533L22.0799 45.7867ZM47.4666 25.12C47.4666 28.8267 44.4533 31.84 40.7466 31.84C38.969 31.833 37.2665 31.1218 36.0121 29.8624C34.7576 28.6029 34.0532 26.8977 34.0533 25.12C34.0497 24.24 34.2204 23.3681 34.5556 22.5544C34.8907 21.7408 35.3836 21.0015 36.0058 20.3792C36.6281 19.757 37.3673 19.2641 38.181 18.929C38.9947 18.5939 39.8666 18.4231 40.7466 18.4267C42.5242 18.4267 44.2295 19.131 45.4889 20.3855C46.7484 21.64 47.4595 23.3424 47.4666 25.12ZM35.7333 25.12C35.7333 27.8933 37.9733 30.16 40.7733 30.16C43.5466 30.16 45.7866 27.8933 45.7866 25.12C45.7866 22.3467 43.5466 20.08 40.7733 20.08C37.9733 20.08 35.7333 22.3467 35.7333 25.12Z" fill="white"/>
</g>
<defs>
<clipPath id="clip0_4_482">
<rect width="64" height="64" fill="white"/>
</clipPath>
</defs>
</svg>
